<svg width="21" height="21" viewBox="0 0 21 21" fill="none" xmlns="http://www.w3.org/2000/svg">
<g id="Group 4514">
<path id="Path 2305" fill-rule="evenodd" clip-rule="evenodd" d="M9.28736 15.8803H11.3107V11.2136H12.8049L13.1041 9.3287H11.3102V7.90272C11.3204 7.78332 11.3542 7.66712 11.4095 7.56081C11.4648 7.4545 11.5406 7.36018 11.6325 7.28329C11.7244 7.2064 11.8306 7.14845 11.945 7.11278C12.0594 7.07711 12.1798 7.06443 12.2991 7.07547H13.1728V5.512L11.6093 5.44279C10.1151 5.34989 9.2869 6.52319 9.2869 7.92548V9.32824H7.58594V11.2131H9.28736V15.8803Z" fill="white"/>
<path id="Ellipse 34" d="M10.3906 19.7812C15.5768 19.7812 19.7812 15.5768 19.7812 10.3906C19.7812 5.2043 15.5768 1 10.3906 1C5.2043 1 1 5.2043 1 10.3906C1 15.5768 5.2043 19.7812 10.3906 19.7812Z" stroke="white" stroke-width="1.99938" stroke-miterlimit="10"/>
</g>
</svg>
