<svg xmlns="http://www.w3.org/2000/svg" viewBox="0 0 120.94 26">
    <defs>
        <style>.cls-1{fill:#fff;opacity:0;}.cls-2{fill: #ffff;}</style>
    </defs>
    <g id="Layer_2" data-name="Layer 2">
        <g id="Layer_1-2" data-name="Layer 1">
            <rect class="cls-1" width="120.94" height="26"/>
            <rect class="cls-2" x="60.41" y="2.02" width="1.95" height="22.31" rx="0.54"/>
            <path class="cls-2" d="M17.23,10.64a3,3,0,0,0-.13.39l-1.59,6.85c-.25,1.11-.5,2.21-.77,3.31a5.2,5.2,0,0,1-2.66,3.59,4.74,4.74,0,0,1-6.36-2,10.25,10.25,0,0,1-.87-2.92C4.33,17.42,3.79,15,3.29,12.6c-.44-2.18-.85-4.35-1.22-6.54a10.87,10.87,0,0,1-.13-2.28,2,2,0,0,1,1.61-1.9A6.25,6.25,0,0,1,5,1.58a2.77,2.77,0,0,1,1.91.7A3.31,3.31,0,0,1,8,4.21l1.35,7.28c.28,1.54.56,3.07.85,4.61,0,.06,0,.14.05.18s.33.43.48.42.4-.26.45-.45c.21-.82.37-1.65.54-2.47.61-2.9,1.21-5.8,1.82-8.69a4.51,4.51,0,0,1,3.71-3.58,4.32,4.32,0,0,1,4.15,2,6.71,6.71,0,0,1,.89,2.82c.31,2.21.63,4.41,1,6.62.14,1,.3,2,.45,3,0,.3.11.6.49.61s.43-.29.5-.57Q26,11.06,27.29,6.14c.21-.8.43-1.6.64-2.41A3.22,3.22,0,0,1,30.18,1.4a5.35,5.35,0,0,1,2.3-.34A4.78,4.78,0,0,1,36.21,3.7a10.28,10.28,0,0,1,.84,2.78q.95,4,1.88,8.09l.27,1.15h.14c0-.16.1-.33.13-.5.4-2.44.79-4.87,1.18-7.31.12-.73.19-1.48.35-2.2a5.31,5.31,0,0,1,3.85-4.33A4.9,4.9,0,0,1,50.58,4.1a21.83,21.83,0,0,1,1,3.11c1.06,3.54,2.09,7.08,3.13,10.62l.88,3a3.4,3.4,0,0,1-1.44,3.75,2.81,2.81,0,0,1-4-1.4,22.92,22.92,0,0,1-.68-2.28q-1.43-5.3-2.83-10.59c-.07-.27-.18-.54-.5-.53s-.43.28-.47.58c-.37,2.5-.74,5-1.12,7.51-.17,1.13-.28,2.28-.54,3.39a4.29,4.29,0,0,1-3.34,3.47,4.15,4.15,0,0,1-4.81-2.51,19.92,19.92,0,0,1-.79-3.06c-.63-3-1.24-5.89-1.85-8.84a1.14,1.14,0,0,0-.15-.46.67.67,0,0,0-.42-.25c-.11,0-.27.17-.33.3s-.15.55-.24.83c-1,3.31-1.95,6.62-2.91,9.94a6.6,6.6,0,0,1-1.27,2.62,5,5,0,0,1-8.36-1,9.54,9.54,0,0,1-.83-3q-.61-4-1.25-7.94l-.12-.69Z"/>
            <path class="cls-2" d="M77.28,2.47a1.21,1.21,0,0,1,.44-.71,1.16,1.16,0,0,1,.67-.21,1.37,1.37,0,0,1,.49.09,1.16,1.16,0,0,1,.43.25,1.34,1.34,0,0,1,.32.42,1.15,1.15,0,0,1,.12.53,1.84,1.84,0,0,1-.08.48l-2.28,7a1.16,1.16,0,0,1-.5.7,1.45,1.45,0,0,1-1.55,0,1.32,1.32,0,0,1-.53-.69L73.59,6.82l-1.15,3.55a1.21,1.21,0,0,1-.51.7,1.4,1.4,0,0,1-.76.22,1.51,1.51,0,0,1-.79-.23,1.36,1.36,0,0,1-.52-.69L67.42,3.29a1.84,1.84,0,0,1-.08-.47,1.11,1.11,0,0,1,.12-.52,1.42,1.42,0,0,1,.32-.41,1.24,1.24,0,0,1,.43-.25,1.43,1.43,0,0,1,.5-.09,1.22,1.22,0,0,1,.69.21,1.17,1.17,0,0,1,.44.71l1.31,4.71,1.18-4.71a1.17,1.17,0,0,1,.47-.71,1.3,1.3,0,0,1,.75-.25,1.35,1.35,0,0,1,.76.25,1.2,1.2,0,0,1,.49.71l1.3,4.71Z"/>
            <path class="cls-2" d="M83.48,9.92a1.26,1.26,0,0,1-.4,1,1.4,1.4,0,0,1-.93.34,1.43,1.43,0,0,1-.94-.34,1.26,1.26,0,0,1-.4-1V3a1.22,1.22,0,0,1,.4-1,1.38,1.38,0,0,1,.94-.34,1.35,1.35,0,0,1,.93.34,1.22,1.22,0,0,1,.4,1Z"/>
            <path class="cls-2" d="M91.58,8.18q0,3.08-3,3.08H85.93A1.14,1.14,0,0,1,84.65,10V9.92c0-.89.46-1.34,1.3-1.34h2.77a.49.49,0,0,0,.4-.15.48.48,0,0,0,0-.66.5.5,0,0,0-.4-.16H87.35c-1.89,0-2.84-1-2.84-2.92s1-3.08,3-3.08h2.13A1.14,1.14,0,0,1,91,2.9V3c0,.89-.45,1.34-1.29,1.34H87.37a.51.51,0,0,0-.41.15.58.58,0,0,0-.13.33.58.58,0,0,0,.13.34.51.51,0,0,0,.41.15h1.37C90.63,5.26,91.58,6.23,91.58,8.18Z"/>
            <path class="cls-2" d="M93.88,11.26a1.18,1.18,0,0,1-1.32-1.34V3a1.18,1.18,0,0,1,1.32-1.34H98.4a1.25,1.25,0,0,1,1,.4,1.37,1.37,0,0,1,.35.94,1.41,1.41,0,0,1-.35.95,1.28,1.28,0,0,1-1,.39H95.21V5.1h2.55a1.26,1.26,0,0,1,1,.39,1.37,1.37,0,0,1,.36,1,1.35,1.35,0,0,1-.36.94,1.26,1.26,0,0,1-1,.4H95.21v.8H98.4a1.25,1.25,0,0,1,1,.4,1.39,1.39,0,0,1,.35.94,1.41,1.41,0,0,1-.35.95,1.28,1.28,0,0,1-1,.39Z"/>
            <path class="cls-2" d="M70,23.61a1.26,1.26,0,0,1-.4,1,1.43,1.43,0,0,1-.94.34,1.4,1.4,0,0,1-.93-.34,1.26,1.26,0,0,1-.4-1V16.79a1.87,1.87,0,0,1,.28-1.13,1.22,1.22,0,0,1,1-.34,2,2,0,0,1,1,.21,2.28,2.28,0,0,1,.63.58l1.76,2.24,1.75-2.26a2.34,2.34,0,0,1,.62-.56,1.73,1.73,0,0,1,.91-.21,1.26,1.26,0,0,1,1,.34,1.74,1.74,0,0,1,.3,1.13v6.82a1.26,1.26,0,0,1-.4,1,1.43,1.43,0,0,1-.94.34,1.4,1.4,0,0,1-.93-.34,1.26,1.26,0,0,1-.4-1V19.55l-1.19,1.58a1.08,1.08,0,0,1-.81.48,1,1,0,0,1-.79-.5L70,19.55Z"/>
            <path class="cls-2" d="M83.33,23.08H80.48l-.41,1a1.29,1.29,0,0,1-.49.65,1.22,1.22,0,0,1-.69.21,1.54,1.54,0,0,1-.52-.09,1.61,1.61,0,0,1-.46-.26,1.16,1.16,0,0,1-.33-.4,1.07,1.07,0,0,1-.12-.51,1.29,1.29,0,0,1,.11-.53l3.18-7a1.6,1.6,0,0,1,.56-.68,1.36,1.36,0,0,1,.73-.23,1.31,1.31,0,0,1,.72.23,1.34,1.34,0,0,1,.52.68l2.92,7a1.15,1.15,0,0,1,.12.53,1.13,1.13,0,0,1-.12.51,1.3,1.3,0,0,1-.34.4,1.48,1.48,0,0,1-.46.26,1.58,1.58,0,0,1-.52.09,1.22,1.22,0,0,1-.69-.21,1.19,1.19,0,0,1-.49-.65Zm-2-2.1h1.3L82,19.25Z"/>
            <path class="cls-2" d="M90.48,21.55a2,2,0,0,1-.4-1.17,1,1,0,0,1,.14-.58.92.92,0,0,1,.37-.31,1.87,1.87,0,0,1,.49-.15,2.4,2.4,0,0,0,.48-.11A1.07,1.07,0,0,0,92,19a.63.63,0,0,0,.18-.45q0-.72-.84-.72H89.85v5.74A1.2,1.2,0,0,1,88.51,25a1.31,1.31,0,0,1-1-.35,1.38,1.38,0,0,1-.33-1v-7c0-.89.43-1.34,1.29-1.34h2.88a4.09,4.09,0,0,1,1.46.25,3.1,3.1,0,0,1,1,.66,2.69,2.69,0,0,1,.6.94,3.06,3.06,0,0,1,.19,1.07,3.12,3.12,0,0,1-.41,1.55A2.62,2.62,0,0,1,93,20.87l1.15,1.82a1.65,1.65,0,0,1,.26.86,1.33,1.33,0,0,1-.12.55,1.37,1.37,0,0,1-.3.45,1.25,1.25,0,0,1-.42.3,1.27,1.27,0,0,1-.5.1,1.14,1.14,0,0,1-.58-.17,1.45,1.45,0,0,1-.49-.54Z"/>
            <path class="cls-2" d="M98.27,23.61a1.25,1.25,0,0,1-.39,1,1.46,1.46,0,0,1-1.87,0,1.23,1.23,0,0,1-.4-1v-7a1.19,1.19,0,0,1,.4-1,1.46,1.46,0,0,1,1.87,0,1.22,1.22,0,0,1,.39,1v2.21l2.17-3.08a1.7,1.7,0,0,1,.46-.37,1.17,1.17,0,0,1,.57-.13,1.31,1.31,0,0,1,.52.11,1.74,1.74,0,0,1,.45.29,1.39,1.39,0,0,1,.42.94,1.23,1.23,0,0,1-.31.82l-2.36,2.65,2.36,2.69a1.28,1.28,0,0,1,.32.84,1.17,1.17,0,0,1-.12.52,1.43,1.43,0,0,1-.31.42,1.74,1.74,0,0,1-.45.29,1.26,1.26,0,0,1-.51.11,1.3,1.3,0,0,1-1-.51l-2.18-3Z"/>
            <path class="cls-2" d="M105.26,25a1.18,1.18,0,0,1-1.32-1.34v-7a1.18,1.18,0,0,1,1.32-1.34h4.52a1.22,1.22,0,0,1,1,.4,1.35,1.35,0,0,1,.36.94,1.33,1.33,0,0,1-.36.94,1.22,1.22,0,0,1-1,.4h-3.2v.81h2.55a1.28,1.28,0,0,1,1,.39,1.41,1.41,0,0,1,.35.95,1.39,1.39,0,0,1-.35.94,1.29,1.29,0,0,1-1,.4h-2.55v.8h3.2a1.22,1.22,0,0,1,1,.4,1.35,1.35,0,0,1,.36.94,1.37,1.37,0,0,1-.36.95,1.24,1.24,0,0,1-1,.39Z"/>
            <path class="cls-2" d="M116.85,23.61a1.26,1.26,0,0,1-.4,1,1.43,1.43,0,0,1-.94.34,1.4,1.4,0,0,1-.93-.34,1.23,1.23,0,0,1-.4-1V18h-.93a1.25,1.25,0,0,1-1-.4,1.37,1.37,0,0,1-.35-.94,1.39,1.39,0,0,1,.35-.94,1.25,1.25,0,0,1,1-.4h4.5a1.22,1.22,0,0,1,1,.4,1.35,1.35,0,0,1,.36.94,1.33,1.33,0,0,1-.36.94,1.22,1.22,0,0,1-1,.4h-.9Z"/>
        </g>
    </g>
</svg>