<svg width="22" height="21" viewBox="0 0 22 21" fill="none" xmlns="http://www.w3.org/2000/svg">
<g id="Group 4515">
<path id="Path 2302" fill-rule="evenodd" clip-rule="evenodd" d="M8.99024 5.66587H13.3527C14.0294 5.6688 14.6775 5.9389 15.1559 6.41736C15.6344 6.89582 15.9045 7.54392 15.9074 8.22056V12.5603C15.9045 13.2369 15.6344 13.885 15.1559 14.3635C14.6775 14.8419 14.0294 15.112 13.3527 15.115H8.99024C8.31359 15.112 7.6655 14.8419 7.18704 14.3635C6.70858 13.885 6.43848 13.2369 6.43555 12.5603V8.22009C6.43848 7.54345 6.70858 6.89536 7.18704 6.4169C7.6655 5.93843 8.31359 5.6688 8.99024 5.66587ZM13.7141 7.31527C13.858 7.31527 13.996 7.37243 14.0977 7.47417C14.1995 7.57591 14.2566 7.71391 14.2566 7.85779C14.2566 8.00168 14.1995 8.13967 14.0977 8.24142C13.996 8.34316 13.858 8.40032 13.7141 8.40032C13.5702 8.40032 13.4322 8.34316 13.3305 8.24142C13.2287 8.13967 13.1716 8.00168 13.1716 7.85779C13.1716 7.71391 13.2287 7.57591 13.3305 7.47417C13.4322 7.37243 13.5702 7.31527 13.7141 7.31527ZM11.1594 7.81274H11.1822C11.8656 7.81274 12.521 8.08422 13.0042 8.56745C13.4874 9.05069 13.7589 9.70609 13.7589 10.3895C13.7589 11.0729 13.4874 11.7283 13.0042 12.2115C12.521 12.6948 11.8656 12.9662 11.1822 12.9662H11.1594C10.482 12.9571 9.83543 12.6817 9.35961 12.1994C8.8838 11.7172 8.61702 11.067 8.61702 10.3895C8.61702 9.71203 8.8838 9.06181 9.35961 8.57956C9.83543 8.09731 10.482 7.82183 11.1594 7.81274ZM11.1594 8.69527H11.1822C11.6348 8.69527 12.0688 8.87506 12.3889 9.1951C12.7089 9.51514 12.8887 9.9492 12.8887 10.4018C12.8887 10.8544 12.7089 11.2885 12.3889 11.6085C12.0688 11.9285 11.6348 12.1083 11.1822 12.1083H11.1594C10.7068 12.1083 10.2727 11.9285 9.95271 11.6085C9.63267 11.2885 9.45287 10.8544 9.45287 10.4018C9.45287 9.9492 9.63267 9.51514 9.95271 9.1951C10.2727 8.87506 10.7068 8.69527 11.1594 8.69527ZM9.01207 6.48012H13.329C13.7972 6.48012 14.2461 6.66608 14.5771 6.99709C14.9081 7.3281 15.0941 7.77706 15.0941 8.24518V12.5398C15.0941 13.008 14.9081 13.4569 14.5771 13.7879C14.2461 14.1189 13.7972 14.3049 13.329 14.3049H9.01207C8.54394 14.3049 8.09501 14.1189 7.76399 13.7879C7.43298 13.4569 7.24701 13.008 7.24701 12.5398V8.24239C7.24701 7.77427 7.43298 7.32532 7.76399 6.9943C8.09501 6.66329 8.54394 6.47733 9.01207 6.47733" fill="white"/>
<path id="Ellipse 35" d="M11.1718 19.7812C16.3581 19.7812 20.5624 15.5768 20.5624 10.3906C20.5624 5.2043 16.3581 1 11.1718 1C5.98555 1 1.78125 5.2043 1.78125 10.3906C1.78125 15.5768 5.98555 19.7812 11.1718 19.7812Z" stroke="white" stroke-width="1.99938" stroke-miterlimit="10"/>
</g>
</svg>
