<svg width="22" height="21" viewBox="0 0 22 21" fill="none" xmlns="http://www.w3.org/2000/svg">
<g id="Group 4516">
<path id="Path 2303" fill-rule="evenodd" clip-rule="evenodd" d="M11.3365 9.61535C11.2568 9.20324 11.3134 8.77637 11.4979 8.39932C11.6824 8.02227 11.9847 7.71557 12.359 7.52563C12.7333 7.33568 13.1593 7.27283 13.5725 7.34658C13.9858 7.42033 14.3637 7.62666 14.6492 7.93437C15.0513 7.81403 15.4361 7.64229 15.7942 7.42343C15.6372 7.86562 15.3371 8.24275 14.9414 8.49501C15.3032 8.45074 15.6563 8.35225 15.9888 8.20284C15.7927 8.59204 15.4768 8.90804 15.0877 9.10442C15.4045 13.5133 10.6542 16.193 6.80542 14.0006C6.80542 14.0006 8.70519 14.0981 9.50922 13.1724C9.50922 13.1724 8.3401 13.27 7.75531 11.857C8.04301 11.955 8.35752 11.9377 8.63273 11.8087C8.21165 11.7145 7.83511 11.48 7.56499 11.1435C7.29487 10.807 7.14724 10.3887 7.14636 9.95722C7.27758 10.0549 7.42737 10.1248 7.58657 10.1625C7.74576 10.2002 7.91099 10.2049 8.07209 10.1765C7.65255 9.92444 7.34861 9.51789 7.22563 9.04418C7.10264 8.57047 7.17041 8.06741 7.41437 7.64313C7.41437 7.64313 9.02196 9.68921 11.336 9.61628" fill="white"/>
<path id="Ellipse 36" d="M10.9528 19.7812C16.1391 19.7812 20.3434 15.5768 20.3434 10.3906C20.3434 5.2043 16.1391 1 10.9528 1C5.76656 1 1.56226 5.2043 1.56226 10.3906C1.56226 15.5768 5.76656 19.7812 10.9528 19.7812Z" stroke="white" stroke-width="1.99938" stroke-miterlimit="10"/>
</g>
</svg>
